# xmcd
# 
# Track frame offsets:
#     150
#     18416
#     41867
#     60122
# 
# Disc length: 1109
# 
# Revision: 0
# Processed by: cddbd v1.5.2PL0 Copyright (c) Steve Scherf et al.
# Submitted via: BonkEnc v1.0.15
# 
DISCID=28045304
DTITLE=トータス松本 - ストレイト
DYEAR=2010
DGENRE=JPop
TTITLE0=ストレイト
TTITLE1=ポーチライト
TTITLE2=ストレイト（カラオケ）
TTITLE3=ポーチライト（カラオケ）
EXTD=
EXTT0=
EXTT1=
EXTT2=
EXTT3=
PLAYORDER=
